<svg width="20" height="21" viewBox="0 0 20 21" fill="none" xmlns="http://www.w3.org/2000/svg">
<g clip-path="url(#clip0_1_14247)">
<path d="M20 10.6667C20 5.1439 15.5229 0.666748 10 0.666748C4.47715 0.666748 0 5.1439 0 10.6667C0 15.658 3.65684 19.7951 8.4375 20.5453V13.5574H5.89844V10.6667H8.4375V8.46362C8.4375 5.95737 9.93047 4.573 12.2146 4.573C13.3084 4.573 14.4531 4.76831 14.4531 4.76831V7.22925H13.1922C11.95 7.22925 11.5625 8.00015 11.5625 8.79175V10.6667H14.3359L13.8926 13.5574H11.5625V20.5453C16.3432 19.7951 20 15.658 20 10.6667Z" fill="#272D37"/>
<path d="M13.8926 13.5574L14.3359 10.6667H11.5625V8.79175C11.5625 8.00093 11.95 7.22925 13.1922 7.22925H14.4531V4.76831C14.4531 4.76831 13.3088 4.573 12.2146 4.573C9.93047 4.573 8.4375 5.95737 8.4375 8.46362V10.6667H5.89844V13.5574H8.4375V20.5453C9.47287 20.7072 10.5271 20.7072 11.5625 20.5453V13.5574H13.8926Z" fill="white"/>
</g>
<defs>
<clipPath id="clip0_1_14247">
<rect width="20" height="20" fill="white" transform="translate(0 0.666748)"/>
</clipPath>
</defs>
</svg>
