<svg width="20" height="21" viewBox="0 0 20 21" fill="none" xmlns="http://www.w3.org/2000/svg">
<path d="M0 2.0994C0 1.30862 0.662031 0.666748 1.47812 0.666748H18.5219C19.3383 0.666748 20 1.30862 20 2.0994V19.2343C20 20.0253 19.3383 20.6667 18.5219 20.6667H1.47812C0.662109 20.6667 0 20.0254 0 19.2346V2.09917V2.0994Z" fill="#272D37"/>
<path d="M6.07767 17.4041V8.40004H3.08485V17.4041H6.07798H6.07767ZM4.58188 7.1709C5.62532 7.1709 6.27493 6.47949 6.27493 5.61543C6.2554 4.73168 5.62532 4.05957 4.60173 4.05957C3.57743 4.05957 2.90845 4.73168 2.90845 5.61535C2.90845 6.47941 3.55782 7.17082 4.56228 7.17082H4.58165L4.58188 7.1709ZM7.73423 17.4041H10.7268V12.3764C10.7268 12.1076 10.7463 11.8382 10.8254 11.6462C11.0416 11.1083 11.5341 10.5515 12.361 10.5515C13.4437 10.5515 13.877 11.3771 13.877 12.5877V17.4041H16.8695V12.2414C16.8695 9.4759 15.3933 8.18894 13.4243 8.18894C11.81 8.18894 11.101 9.09121 10.7071 9.70574H10.727V8.40035H7.73438C7.77345 9.24504 7.73415 17.4044 7.73415 17.4044L7.73423 17.4041Z" fill="white"/>
</svg>
