<svg width="20" height="21" viewBox="0 0 20 21" fill="none" xmlns="http://www.w3.org/2000/svg">
<g clip-path="url(#clip0_1_14249)">
<path d="M10 20.6667C15.5228 20.6667 20 16.1896 20 10.6667C20 5.1439 15.5228 0.666748 10 0.666748C4.47715 0.666748 0 5.1439 0 10.6667C0 16.1896 4.47715 20.6667 10 20.6667Z" fill="#272D37"/>
<path fill-rule="evenodd" clip-rule="evenodd" d="M4.5266 10.5612C7.4418 9.2911 9.38573 8.45377 10.3584 8.04921C13.1355 6.89412 13.7125 6.69346 14.0887 6.68684C14.1714 6.68538 14.3563 6.70588 14.4762 6.8031C14.5773 6.88519 14.6052 6.99608 14.6185 7.07391C14.6318 7.15174 14.6484 7.32904 14.6352 7.46758C14.4847 9.04881 13.8335 12.8861 13.5022 14.6571C13.3621 15.4064 13.0861 15.6577 12.8188 15.6823C12.2381 15.7357 11.7972 15.2985 11.2347 14.9298C10.3546 14.3529 9.85735 13.9937 9.00303 13.4308C8.01572 12.7801 8.65575 12.4225 9.21842 11.8381C9.36567 11.6852 11.9243 9.35789 11.9739 9.14677C11.98 9.12037 11.9858 9.02194 11.9273 8.96997C11.8689 8.918 11.7826 8.93577 11.7203 8.94991C11.632 8.96994 10.226 9.89927 7.50222 11.7379C7.10313 12.0119 6.74164 12.1455 6.41776 12.1385C6.06071 12.1307 5.37388 11.9366 4.8633 11.7706C4.23705 11.567 3.73932 11.4594 3.78266 11.1137C3.80524 10.9336 4.05321 10.7495 4.5266 10.5612Z" fill="white"/>
</g>
<defs>
<clipPath id="clip0_1_14249">
<rect width="20" height="20" fill="white" transform="translate(0 0.666748)"/>
</clipPath>
</defs>
</svg>
