<svg width="20" height="21" viewBox="0 0 20 21" fill="none" xmlns="http://www.w3.org/2000/svg">
<path d="M6.2896 18.7923C13.8368 18.7923 17.9648 12.5395 17.9648 7.1171C17.9648 6.9395 17.9648 6.7627 17.9528 6.5867C18.7559 6.00583 19.4491 5.2866 20 4.4627C19.2512 4.7947 18.4567 5.01233 17.6432 5.1083C18.4998 4.59554 19.141 3.78895 19.4472 2.8387C18.6417 3.31671 17.7605 3.65356 16.8416 3.8347C16.2229 3.17685 15.4047 2.74123 14.5135 2.59527C13.6223 2.44931 12.7078 2.60113 11.9116 3.02724C11.1154 3.45336 10.4819 4.13001 10.109 4.95249C9.73605 5.77497 9.64462 6.69742 9.8488 7.5771C8.21741 7.49527 6.62146 7.07129 5.16455 6.3327C3.70763 5.59412 2.4223 4.55742 1.392 3.2899C0.867274 4.19323 0.70656 5.26259 0.942583 6.28025C1.17861 7.29791 1.79362 8.18736 2.6624 8.7675C2.00936 8.74837 1.37054 8.5722 0.8 8.2539V8.3059C0.800259 9.25328 1.12821 10.1714 1.72823 10.9045C2.32824 11.6377 3.16338 12.1407 4.092 12.3283C3.4879 12.4931 2.85406 12.5172 2.2392 12.3987C2.50151 13.214 3.01202 13.9269 3.69937 14.4378C4.38671 14.9487 5.21652 15.2321 6.0728 15.2483C5.22203 15.917 4.24776 16.4115 3.20573 16.7033C2.16369 16.9951 1.07435 17.0787 0 16.9491C1.87653 18.1533 4.05994 18.792 6.2896 18.7891" fill="#272D37"/>
</svg>
